<svg enable-background="new 0 0 256 256" height="512" viewBox="0 0 256 256" width="512" xmlns="http://www.w3.org/2000/svg"><path d="m155.811 109.821c-7.029-7.029-18.426-7.029-25.456 0l-2.357 2.357-2.357-2.357c-7.029-7.029-18.426-7.029-25.456 0-7.029 7.029-7.029 18.426 0 25.456l2.357 2.357 21.92 21.92c1.953 1.953 5.118 1.953 7.071 0l21.92-21.92 2.357-2.357c7.03-7.03 7.03-18.427.001-25.456z" fill="#ff4a73"/><path d="m155.814 135.28-2.36 2.35-21.92 21.92c-1.95 1.96-5.12 1.96-7.07 0l-4.25-4.25 18.24-20.29 2.36-2.62c6.86-7.63 7.03-19.9.48-27.75 5.19-.52 10.55 1.21 14.52 5.18 7.03 7.03 7.03 18.43 0 25.46z" fill="#ea2a6a"/><path d="m117.544 134.18 18.33 21.03-4.34 4.34c-1.95 1.96-5.12 1.96-7.07 0l-21.92-21.92-2.36-2.35c-3.52-3.51-5.27-8.12-5.27-12.73s1.75-9.22 5.27-12.73c3.65-3.65 8.49-5.41 13.27-5.26-2.37 3.64-3.54 7.98-3.54 12.31 0 5.29 1.75 10.58 5.27 14.61z" fill="#f973a3"/><path id="XMLID_62_" d="m57.967 97.211c2.276.206 4.564.315 6.852.315 8.183 0 16.391-1.32 24.283-3.983 3.135-1.053 6.186-2.3 9.14-3.753l47.731-23.351 79.871 43.337c2.409 1.38 5.024 2.034 7.614 2.034 5.302 0 10.459-2.76 13.292-7.687 4.213-7.324 1.683-16.693-5.653-20.894l-78.963-72.342c-.048-.036-.097-.085-.145-.121-7.711-5.883-18.001-7.166-27.08-3.741l-63.82 24.103c-7.082 2.385-14.502 2.905-21.596 1.719-4.14-.69-8.171-1.961-11.984-3.789v63.372c6.597 2.542 13.485 4.139 20.458 4.781z" fill="#ffbb98"/><path d="m7.245 102.456v-79.43c0-3.03 2.45-5.48 5.48-5.48h19.3c3.03 0 5.48 2.45 5.48 5.48v79.43c0 3.02-2.45 5.48-5.48 5.48h-19.3c-3.03 0-5.48-2.46-5.48-5.48z" fill="#ff4a73"/><path d="m7.245 102.456v-79.43c0-3.03 2.45-5.48 5.48-5.48h4.3c3.03 0 5.48 2.45 5.48 5.48v79.43c0 3.02-2.45 5.48-5.48 5.48h-4.3c-3.03 0-5.48-2.46-5.48-5.48z" fill="#f973a3"/><path id="XMLID_61_" d="m57.967 97.211c2.276.206 4.564.315 6.852.315 8.183 0 16.391-1.32 24.283-3.983 3.135-1.053 6.186-2.3 9.14-3.753l47.731-23.351 7.566-3.704c4.951-2.494 7.808-7.505 7.808-12.686 0-2.155-.484-4.346-1.525-6.392-3.535-7.009-12.069-9.83-19.078-6.295l-58.6 28.665s-16.979 7.619-37.808 6.158l-6.827-.548v20.793c6.597 2.542 13.485 4.139 20.458 4.781z" fill="#ffcaa6"/><path id="XMLID_60_" d="m198.066 158.789c-2.276-.206-4.564-.315-6.852-.315-8.183 0-16.391 1.32-24.283 3.983-3.135 1.053-6.186 2.3-9.14 3.753l-47.731 23.351-79.871-43.337c-2.409-1.38-5.024-2.034-7.614-2.034-5.302 0-10.459 2.76-13.292 7.687-4.213 7.324-1.683 16.693 5.653 20.894l78.963 72.342c.048.036.097.085.145.121 7.711 5.883 18.001 7.166 27.08 3.741l63.819-24.102c7.082-2.385 14.502-2.905 21.596-1.719 4.14.69 8.171 1.961 11.984 3.789v-63.372c-6.597-2.542-13.485-4.14-20.457-4.782z" fill="#ffbb98"/><path d="m248.787 153.545v79.43c0 3.03-2.45 5.48-5.48 5.48h-19.3c-3.03 0-5.48-2.45-5.48-5.48v-79.43c0-3.02 2.45-5.48 5.48-5.48h19.3c3.03 0 5.48 2.46 5.48 5.48z" fill="#f973a3"/><path d="m248.787 153.545v79.43c0 3.03-2.45 5.48-5.48 5.48h-4.3c-3.03 0-5.48-2.45-5.48-5.48v-79.43c0-3.02 2.45-5.48 5.48-5.48h4.3c3.03 0 5.48 2.46 5.48 5.48z" fill="#ff4a73"/><path id="XMLID_59_" d="m198.066 158.789c-2.276-.206-4.564-.315-6.852-.315-8.183 0-16.391 1.32-24.283 3.983-3.135 1.053-6.186 2.3-9.14 3.753l-47.731 23.351-7.566 3.704c-4.951 2.494-7.808 7.505-7.808 12.686 0 2.155.484 4.346 1.525 6.392 3.535 7.009 12.069 9.83 19.078 6.295l58.6-28.665s16.979-7.619 37.808-6.158l6.827.548v-20.793c-6.598-2.541-13.486-4.139-20.458-4.781z" fill="#ffcaa6"/><g fill="#5f266d"><path d="m243.276 144.07h-19.298c-5.228 0-9.481 4.253-9.481 9.48v4.442c-19.332-5.89-40.343-4.298-58.483 4.625-.29.142-45.579 22.298-45.869 22.44l-77.976-42.304c-9.228-5.285-21.053-2.086-26.359 7.133-4.795 8.342-2.666 19.049 4.954 24.904 3.586 2.756 45.537 41.265 65.698 59.771 14.817 13.601 14.864 13.636 15.143 13.845 5.531 4.22 12.374 6.413 19.316 6.413 3.906 0 7.843-.694 11.596-2.113l63.749-24.067c9.256-3.107 19.184-2.767 28.231.908v3.419c0 5.228 4.253 9.48 9.481 9.48h19.298c5.228 0 9.481-4.253 9.481-9.48v-79.416c0-5.227-4.253-9.48-9.481-9.48zm-59.633 77.012c-.045.015-.09.031-.134.048l-63.819 24.093c-7.815 2.957-16.659 1.771-23.142-3.107-.843-.749-6.974-6.376-14.677-13.448-30.176-27.699-62.668-57.481-66.232-60.221-4.457-3.425-5.701-9.69-2.895-14.572 3.11-5.403 10.04-7.278 15.528-4.135l73.053 39.635-.645.316c-4.348 2.19-7.579 5.948-9.099 10.582-5.064 15.454 11.166 29.157 25.45 21.954l59.733-29.219c1.984-.971 2.806-3.366 1.835-5.351-.971-1.983-3.364-2.805-5.351-1.835l-59.777 29.241c-8.082 4.077-17.104-3.705-14.289-12.296 1.494-4.556 4.968-5.867 7.061-6.892 7.706-3.773 3.235-1.585 53.291-26.073 17.057-8.389 36.933-9.579 54.96-3.407v54.636c-10.011-3.333-20.763-3.353-30.851.051zm61.114 11.884c0 .816-.665 1.48-1.481 1.48h-19.298c-.816 0-1.481-.664-1.481-1.48v-79.416c0-.816.665-1.48 1.481-1.48h19.298c.816 0 1.481.664 1.481 1.48z"/><path d="m12.723 111.93h19.299c5.228 0 9.48-4.253 9.48-9.48v-4.438c20.185 6.149 41.077 3.932 58.484-4.629.29-.142 45.579-22.298 45.869-22.44 85.126 46.184 80.847 44.854 87.543 44.854 6.697 0 13.221-3.478 16.792-9.683 4.795-8.342 2.666-19.048-4.954-24.904-4.282-3.291-80.817-73.598-80.841-73.616-8.643-6.593-20.489-8.241-30.913-4.3l-63.748 24.066c-9.256 3.106-19.184 2.766-28.231-.908v-3.419c0-5.228-4.253-9.48-9.48-9.48h-19.3c-5.228 0-9.48 4.253-9.48 9.48v79.416c0 5.228 4.253 9.481 9.48 9.481zm59.767-77.059 63.819-24.093c7.816-2.956 16.66-1.771 23.142 3.106 3.371 2.995 75.629 69.61 80.91 73.668 4.457 3.425 5.701 9.691 2.895 14.573-3.109 5.402-10.039 7.279-15.529 4.135l-73.053-39.635c5.069-2.482 8.208-6.213 9.744-10.898 5.008-15.282-11.032-29.22-25.45-21.953l-59.733 29.219c-1.984.971-2.806 3.366-1.835 5.351.972 1.984 3.366 2.806 5.351 1.835l59.777-29.241c8.081-4.078 17.103 3.705 14.289 12.296-.852 2.598-2.661 4.704-5.055 5.91-19.802 9.691 15.127-7.398-55.297 27.055-17.057 8.389-36.934 9.579-54.961 3.406v-54.634c10.748 3.576 22.526 3.096 30.986-.1zm-61.247-11.837c0-.816.664-1.48 1.48-1.48h19.299c.816 0 1.48.664 1.48 1.48v79.416c0 .816-.664 1.48-1.48 1.48h-19.299c-.816 0-1.48-.664-1.48-1.48z"/><path d="m143.085 100.549c-5.657 0-10.988 2.121-15.085 5.986-8.61-8.117-22.218-7.965-30.641.458-8.578 8.578-8.578 22.535 0 31.113l24.277 24.277c1.755 1.754 4.06 2.631 6.364 2.631 2.305 0 4.609-.877 6.364-2.631l24.277-24.277c8.577-8.578 8.578-22.535 0-31.113-4.155-4.155-9.68-6.444-15.556-6.444zm9.899 31.9-24.277 24.277c-.39.391-1.024.39-1.414 0l-24.278-24.277c-8.804-8.804-2.51-23.893 9.9-23.893 3.584 0 7.17 1.365 9.899 4.094l2.357 2.357c1.56 1.562 4.095 1.562 5.657 0l2.357-2.357c2.644-2.645 6.16-4.101 9.899-4.101 12.38 0 18.725 15.075 9.9 23.9z"/><path d="m126.904 138.807-1.833 1.968c-1.506 1.617-1.416 4.147.2 5.653.771.718 1.75 1.073 2.726 1.073 1.071 0 2.14-.428 2.928-1.273l1.833-1.968c1.506-1.617 1.416-4.147-.2-5.653-1.617-1.507-4.148-1.416-5.654.2z"/><path d="m143.263 121.246-6.135 6.585c-1.506 1.617-1.416 4.147.2 5.653.771.718 1.75 1.073 2.726 1.073 1.071 0 2.14-.428 2.928-1.273l6.135-6.585c1.506-1.617 1.416-4.147-.2-5.653-1.618-1.506-4.148-1.416-5.654.2z"/></g></svg>